<?xml version="1.0"?>
<svg xmlns="http://www.w3.org/2000/svg" width="680" height="820" viewBox="0 0 680 820" >
 <g class="complete">
  <title>NoteBook background</title>
  <line fill="none" stroke="#02abf2" stroke-linecap="round"  stroke-width="2" x1="0" x2="680" y1="20" y2="20"/>
  <line fill="none" stroke="#02abf2" stroke-linecap="round"  stroke-width="2" x1="0" x2="680" y1="40" y2="40"/>   
  <line fill="none" stroke="#02abf2" stroke-linecap="round"  stroke-width="2" x1="0" x2="680" y1="60" y2="60"/>
  <line fill="none" stroke="#02abf2" stroke-linecap="round"  stroke-width="2" x1="0" x2="680" y1="80" y2="80"/>
  <line fill="none" stroke="#02abf2" stroke-linecap="round"  stroke-width="2" x1="0" x2="680" y1="100" y2="100"/>
  <line fill="none" stroke="#02abf2" stroke-linecap="round"  stroke-width="2" x1="0" x2="680" y1="120" y2="120"/>
  <line fill="none" stroke="#02abf2" stroke-linecap="round"  stroke-width="2" x1="0" x2="680" y1="140" y2="140"/>
  <line fill="none" stroke="#02abf2" stroke-linecap="round"  stroke-width="2" x1="0" x2="680" y1="160" y2="160"/>
  <line fill="none" stroke="#02abf2" stroke-linecap="round"  stroke-width="2" x1="0" x2="680" y1="180" y2="180"/>
  <line fill="none" stroke="#02abf2" stroke-linecap="round"  stroke-width="2" x1="0" x2="680" y1="200" y2="200"/>
  <line fill="none" stroke="#02abf2" stroke-linecap="round"  stroke-width="2" x1="0" x2="680" y1="220" y2="220"/>
  <line fill="none" stroke="#02abf2" stroke-linecap="round"  stroke-width="2" x1="0" x2="680" y1="240" y2="240"/>   
  <line fill="none" stroke="#02abf2" stroke-linecap="round"  stroke-width="2" x1="0" x2="680" y1="260" y2="260"/>
  <line fill="none" stroke="#02abf2" stroke-linecap="round"  stroke-width="2" x1="0" x2="680" y1="280" y2="280"/>
  <line fill="none" stroke="#02abf2" stroke-linecap="round"  stroke-width="2" x1="0" x2="680" y1="300" y2="300"/>
  <line fill="none" stroke="#02abf2" stroke-linecap="round"  stroke-width="2" x1="0" x2="680" y1="320" y2="320"/>
  <line fill="none" stroke="#02abf2" stroke-linecap="round"  stroke-width="2" x1="0" x2="680" y1="340" y2="340"/>   
  <line fill="none" stroke="#02abf2" stroke-linecap="round"  stroke-width="2" x1="0" x2="680" y1="360" y2="360"/>
  <line fill="none" stroke="#02abf2" stroke-linecap="round"  stroke-width="2" x1="0" x2="680" y1="380" y2="380"/>
  <line fill="none" stroke="#02abf2" stroke-linecap="round"  stroke-width="2" x1="0" x2="680" y1="400" y2="400"/>
  <line fill="none" stroke="#02abf2" stroke-linecap="round"  stroke-width="2" x1="0" x2="680" y1="420" y2="420"/>
  <line fill="none" stroke="#02abf2" stroke-linecap="round"  stroke-width="2" x1="0" x2="680" y1="440" y2="440"/>   
  <line fill="none" stroke="#02abf2" stroke-linecap="round"  stroke-width="2" x1="0" x2="680" y1="460" y2="460"/>
  <line fill="none" stroke="#02abf2" stroke-linecap="round"  stroke-width="2" x1="0" x2="680" y1="480" y2="480"/>
  <line fill="none" stroke="#02abf2" stroke-linecap="round"  stroke-width="2" x1="0" x2="680" y1="500" y2="500"/>
  <line fill="none" stroke="#02abf2" stroke-linecap="round"  stroke-width="2" x1="0" x2="680" y1="520" y2="520"/>
  <line fill="none" stroke="#02abf2" stroke-linecap="round"  stroke-width="2" x1="0" x2="680" y1="540" y2="540"/>   
  <line fill="none" stroke="#02abf2" stroke-linecap="round"  stroke-width="2" x1="0" x2="680" y1="560" y2="560"/>
  <line fill="none" stroke="#02abf2" stroke-linecap="round"  stroke-width="2" x1="0" x2="680" y1="580" y2="580"/>
  <line fill="none" stroke="#02abf2" stroke-linecap="round"  stroke-width="2" x1="0" x2="680" y1="600" y2="600"/>
  <line fill="none" stroke="#02abf2" stroke-linecap="round"  stroke-width="2" x1="0" x2="680" y1="620" y2="620"/>
  <line fill="none" stroke="#02abf2" stroke-linecap="round"  stroke-width="2" x1="0" x2="680" y1="640" y2="640"/>   
  <line fill="none" stroke="#02abf2" stroke-linecap="round"  stroke-width="2" x1="0" x2="680" y1="660" y2="660"/>
  <line fill="none" stroke="#02abf2" stroke-linecap="round"  stroke-width="2" x1="0" x2="680" y1="680" y2="680"/>
  <line fill="none" stroke="#02abf2" stroke-linecap="round"  stroke-width="2" x1="0" x2="680" y1="700" y2="700"/> 
  <line fill="none" stroke="#02abf2" stroke-linecap="round"  stroke-width="2" x1="0" x2="680" y1="720" y2="720"/>
  <line fill="none" stroke="#02abf2" stroke-linecap="round"  stroke-width="2" x1="0" x2="680" y1="740" y2="740"/>   
  <line fill="none" stroke="#02abf2" stroke-linecap="round"  stroke-width="2" x1="0" x2="680" y1="760" y2="760"/>
  <line fill="none" stroke="#02abf2" stroke-linecap="round"  stroke-width="2" x1="0" x2="680" y1="780" y2="780"/>
  <line fill="none" stroke="#02abf2" stroke-linecap="round"  stroke-width="2" x1="0" x2="680" y1="800" y2="800"/>


  <line fill="none" stroke="#02abf2" stroke-linecap="round"  stroke-width="2" y1="0" y2="820" x1="100" x2="100"/>
  <line fill="none" stroke="#02abf2" stroke-linecap="round"  stroke-width="2" y1="0" y2="820" x1="120" x2="120"/>
  <line fill="none" stroke="#02abf2" stroke-linecap="round"  stroke-width="2" y1="0" y2="820" x1="140" x2="140"/>
  <line fill="none" stroke="#02abf2" stroke-linecap="round"  stroke-width="2" y1="0" y2="820" x1="160" x2="160"/>
  <line fill="none" stroke="#02abf2" stroke-linecap="round"  stroke-width="2" y1="0" y2="820" x1="180" x2="180"/>
  <line fill="none" stroke="#02abf2" stroke-linecap="round"  stroke-width="2" y1="0" y2="820" x1="200" x2="200"/>
  <line fill="none" stroke="#02abf2" stroke-linecap="round"  stroke-width="2" y1="0" y2="820" x1="220" x2="220"/>
  <line fill="none" stroke="#02abf2" stroke-linecap="round"  stroke-width="2" y1="0" y2="820" x1="240" x2="240"/>   
  <line fill="none" stroke="#02abf2" stroke-linecap="round"  stroke-width="2" y1="0" y2="820" x1="260" x2="260"/>
  <line fill="none" stroke="#02abf2" stroke-linecap="round"  stroke-width="2" y1="0" y2="820" x1="280" x2="280"/>
  <line fill="none" stroke="#02abf2" stroke-linecap="round"  stroke-width="2" y1="0" y2="820" x1="300" x2="300"/>
  <line fill="none" stroke="#02abf2" stroke-linecap="round"  stroke-width="2" y1="0" y2="820" x1="320" x2="320"/>
  <line fill="none" stroke="#02abf2" stroke-linecap="round"  stroke-width="2" y1="0" y2="820" x1="340" x2="340"/>   
  <line fill="none" stroke="#02abf2" stroke-linecap="round"  stroke-width="2" y1="0" y2="820" x1="360" x2="360"/>
  <line fill="none" stroke="#02abf2" stroke-linecap="round"  stroke-width="2" y1="0" y2="820" x1="380" x2="380"/>
  <line fill="none" stroke="#02abf2" stroke-linecap="round"  stroke-width="2" y1="0" y2="820" x1="400" x2="400"/>
  <line fill="none" stroke="#02abf2" stroke-linecap="round"  stroke-width="2" y1="0" y2="820" x1="420" x2="420"/>
  <line fill="none" stroke="#02abf2" stroke-linecap="round"  stroke-width="2" y1="0" y2="820" x1="440" x2="440"/>   
  <line fill="none" stroke="#02abf2" stroke-linecap="round"  stroke-width="2" y1="0" y2="820" x1="460" x2="460"/>
  <line fill="none" stroke="#02abf2" stroke-linecap="round"  stroke-width="2" y1="0" y2="820" x1="480" x2="480"/>
  <line fill="none" stroke="#02abf2" stroke-linecap="round"  stroke-width="2" y1="0" y2="820" x1="500" x2="500"/>
  <line fill="none" stroke="#02abf2" stroke-linecap="round"  stroke-width="2" y1="0" y2="820" x1="520" x2="520"/>
  <line fill="none" stroke="#02abf2" stroke-linecap="round"  stroke-width="2" y1="0" y2="820" x1="540" x2="540"/>   
  <line fill="none" stroke="#02abf2" stroke-linecap="round"  stroke-width="2" y1="0" y2="820" x1="560" x2="560"/>
  <line fill="none" stroke="#02abf2" stroke-linecap="round"  stroke-width="2" y1="0" y2="820" x1="580" x2="580"/>
  <line fill="none" stroke="#02abf2" stroke-linecap="round"  stroke-width="2" y1="0" y2="820" x1="600" x2="600"/>
  <line fill="none" stroke="#02abf2" stroke-linecap="round"  stroke-width="2" y1="0" y2="820" x1="620" x2="620"/>
  <line fill="none" stroke="#02abf2" stroke-linecap="round"  stroke-width="2" y1="0" y2="820" x1="640" x2="640"/>
  <line fill="none" stroke="#02abf2" stroke-linecap="round"  stroke-width="2" y1="0" y2="820" x1="660" x2="660"/>


  <line fill="none" stroke="#bb1111" stroke-linecap="round"  stroke-width="3" x1="80" x2="80" y1="0" y2="820"/>
 </g>
</svg>