<svg width="39" height="39" viewBox="0 0 39 39" fill="none" xmlns="http://www.w3.org/2000/svg">
<path d="M19.5 39C30.2696 39 39 30.2696 39 19.5C39 8.73045 30.2696 0 19.5 0C8.73045 0 0 8.73045 0 19.5C0 30.2696 8.73045 39 19.5 39Z" fill="#B4DFFB"/>
<path d="M19.5 23.4C23.0899 23.4 26 21.0719 26 18.2C26 15.3281 23.0899 13 19.5 13C15.9101 13 13 15.3281 13 18.2C13 21.0719 15.9101 23.4 19.5 23.4Z" fill="#595959"/>
<path fill-rule="evenodd" clip-rule="evenodd" d="M13.0903 37.9221C13.0309 37.2158 13 36.4901 13 35.75C13 28.5703 15.9101 22.75 19.5 22.75C23.0899 22.75 26 28.5703 26 35.75C26 36.4901 25.9691 37.2158 25.9097 37.9221C23.9022 38.6205 21.7454 39 19.5 39C17.2546 39 15.0978 38.6205 13.0903 37.9221ZM17.2981 13.6811C17.2981 13.6811 16.0272 10.758 14.6059 9.75C14.6059 9.75 13.0766 13.7641 13.8867 17.094" fill="#595959"/>
<path fill-rule="evenodd" clip-rule="evenodd" d="M21.4502 13.6811C21.4502 13.6811 22.7212 10.758 24.1425 9.75C24.1425 9.75 25.6718 13.7641 24.8617 17.094" fill="#595959"/>
</svg>
