<svg width="39" height="39" viewBox="0 0 39 39" fill="none" xmlns="http://www.w3.org/2000/svg">
<path fill-rule="evenodd" clip-rule="evenodd" d="M19.5 6.5C11.375 6.5 4.43625 11.5538 1.625 18.6875C4.43625 25.8212 11.375 30.875 19.5 30.875C27.625 30.875 34.5638 25.8212 37.375 18.6875C34.5638 11.5538 27.625 6.5 19.5 6.5ZM19.5 26.8125C15.015 26.8125 11.375 23.1725 11.375 18.6875C11.375 14.2025 15.015 10.5625 19.5 10.5625C23.985 10.5625 27.625 14.2025 27.625 18.6875C27.625 23.1725 23.985 26.8125 19.5 26.8125ZM14.625 18.6875C14.625 15.99 16.8025 13.8125 19.5 13.8125C22.1975 13.8125 24.375 15.99 24.375 18.6875C24.375 21.385 22.1975 23.5625 19.5 23.5625C16.8025 23.5625 14.625 21.385 14.625 18.6875Z" fill="#C2CADC"/>
</svg>
